<svg width="96" height="60" viewBox="0 0 96 60" fill="none" xmlns="http://www.w3.org/2000/svg">
<path id="WD" d="M14.6719 14.5625C14.5781 15.2656 14.5156 15.9844 14.4844 16.7188C14.4531 17.4375 14.4375 18.1875 14.4375 18.9688C14.4375 20.3594 14.5078 21.7812 14.6484 23.2344C14.7891 24.6719 15 26.1094 15.2812 27.5469C15.5625 28.9844 15.9141 30.3984 16.3359 31.7891C16.7578 33.1641 17.2422 34.4766 17.7891 35.7266C18.3516 36.9766 18.9766 38.1406 19.6641 39.2188C20.3672 40.2969 21.1406 41.25 21.9844 42.0781C22.9062 41.125 23.6484 40.0312 24.2109 38.7969C24.7891 37.5469 25.2344 36.25 25.5469 34.9062C25.875 33.5469 26.0938 32.1797 26.2031 30.8047C26.3125 29.4297 26.375 28.125 26.3906 26.8906H31.5469C31.5469 28.125 31.6016 29.4219 31.7109 30.7812C31.8203 32.1406 32.0312 33.4922 32.3438 34.8359C32.6562 36.1641 33.0938 37.4531 33.6562 38.7031C34.2188 39.9375 34.9531 41.0469 35.8594 42.0312C37.1719 40.6094 38.3047 39 39.2578 37.2031C40.2109 35.3906 41 33.4922 41.625 31.5078C42.25 29.5234 42.7109 27.4922 43.0078 25.4141C43.3047 23.3359 43.4531 21.2969 43.4531 19.2969C43.4531 17.625 43.3594 16.0156 43.1719 14.4688C44.5469 14.5313 45.7734 14.625 46.8516 14.75C47.9453 14.875 48.8906 15 49.6875 15.125C50.5938 15.2813 51.4062 15.4375 52.125 15.5938V21.5C51.6094 21.3281 51.1016 21.1953 50.6016 21.1016C50.1172 20.9922 49.6406 20.875 49.1719 20.75C49.1719 24.1094 48.8438 27.2266 48.1875 30.1016C47.5469 32.9609 46.6484 35.6328 45.4922 38.1172C44.3359 40.6016 42.9531 42.9062 41.3438 45.0312C39.7344 47.1562 37.9688 49.1406 36.0469 50.9844C34.6719 49.6562 33.3906 48.1719 32.2031 46.5312C31.0312 44.8906 29.9531 43.0312 28.9688 40.9531C27.9531 43.0312 26.8438 44.8984 25.6406 46.5547C24.4531 48.2109 23.1719 49.7031 21.7969 51.0312C19.8906 49.1875 18.1484 47.2031 16.5703 45.0781C14.9922 42.9531 13.6406 40.6484 12.5156 38.1641C11.3906 35.6797 10.5156 33.0078 9.89062 30.1484C9.26562 27.2734 8.95312 24.1562 8.95312 20.7969C8.39062 20.9219 7.84375 21.0391 7.3125 21.1484C6.79688 21.2422 6.28125 21.375 5.76562 21.5469V15.5938C5.76562 15.6094 5.96875 15.5781 6.375 15.5C6.79688 15.4219 7.39062 15.3281 8.15625 15.2188C8.9375 15.0938 9.875 14.9766 10.9688 14.8672C12.0625 14.7422 13.2969 14.6406 14.6719 14.5625ZM71.8594 14.2812C74.2656 14.2812 76.5312 14.4922 78.6562 14.9141C80.7812 15.3359 82.6406 15.9219 84.2344 16.6719C85.8281 17.4219 87.0859 18.3281 88.0078 19.3906C88.9297 20.4375 89.3906 21.5938 89.3906 22.8594V41.5156C89.3906 42.7812 88.9297 43.9453 88.0078 45.0078C87.0859 46.0547 85.8281 46.9531 84.2344 47.7031C82.6406 48.4531 80.7812 49.0391 78.6562 49.4609C76.5312 49.8828 74.2656 50.0938 71.8594 50.0938C70.5156 50.0938 69.1406 50.0469 67.7344 49.9531C66.3281 49.8438 64.9609 49.7109 63.6328 49.5547C62.3203 49.3828 61.0859 49.1875 59.9297 48.9688C58.7734 48.75 57.7812 48.5156 56.9531 48.2656V16.1094C57.7812 15.8594 58.7734 15.625 59.9297 15.4062C61.0859 15.1875 62.3203 15 63.6328 14.8438C64.9609 14.6719 66.3281 14.5391 67.7344 14.4453C69.1406 14.3359 70.5156 14.2812 71.8594 14.2812ZM71.9531 19.5781C70.5312 19.5781 69.2969 19.625 68.25 19.7188C67.2031 19.7969 66.3047 19.9062 65.5547 20.0469C64.8047 20.1719 64.1797 20.3125 63.6797 20.4688C63.1953 20.6094 62.7969 20.7344 62.4844 20.8438V43.5312C62.7969 43.6562 63.1953 43.7891 63.6797 43.9297C64.1797 44.0703 64.8047 44.2109 65.5547 44.3516C66.3047 44.4766 67.2031 44.5859 68.25 44.6797C69.2969 44.7578 70.5312 44.7969 71.9531 44.7969C73.7031 44.7969 75.2734 44.6562 76.6641 44.375C78.0703 44.0938 79.25 43.7188 80.2031 43.25C81.1719 42.7812 81.9141 42.2422 82.4297 41.6328C82.9453 41.0078 83.2031 40.3594 83.2031 39.6875V24.6875C83.2031 24.0156 82.9453 23.375 82.4297 22.7656C81.9141 22.1406 81.1719 21.5938 80.2031 21.125C79.25 20.6562 78.0703 20.2812 76.6641 20C75.2734 19.7188 73.7031 19.5781 71.9531 19.5781Z" fill="#34547A"/>
</svg>
